<svg id="Layer_1" data-name="Layer 1" xmlns="http://www.w3.org/2000/svg" viewBox="0 0 450 450">
  <g id="pontoons">
    <path d="M184.80405,242.50443c11.197,8.36736-12.91391,35.25508-24.18512,46.11C152.43091,296.5,138.5634,301.7249,124.87353,301c-9.44262-.5-17.53955-24.52782,3.31635-38.84334C136.43091,256.5,175.43091,235.5,184.80405,242.50443Z" fill="#fbef57"/>
    <path d="M265.196,242.50443c-11.197,8.36736,12.91391,35.25508,24.18512,46.11C297.56909,296.5,311.4366,301.7249,325.12647,301c9.44262-.5,17.53955-24.52782-3.31635-38.84334C313.56909,256.5,274.56909,235.5,265.196,242.50443Z" fill="#fbef57"/>
  </g>
  <g id="wings">
    <path d="M171.559,181.19622a52.88886,52.88886,0,0,1,4.44824-24.0268H88.46927l.56.002c-6.94536.004-12.68874.004-15.913,6.21685,2.85746,7.51293,10.03929,17.72664,22.06787,17.79005l74.81007.0179Z" fill="#fbef57"/>
    <path d="M278.44061,181.19622c.457-7.25134-1.30153-18.35137-4.42765-24.0268h86.99858l-.56.002c6.94536.004,12.68874.004,15.913,6.21685-2.85746,7.51293-10.03929,17.72664-22.06787,17.79005l-75.30455.0179Z" fill="#fbef57"/>
  </g>
  <g>
    <path d="M211.01092,167.2189a18.79813,18.79813,0,0,1,4.33-4.61532c-3.13977-8.23074-6.79188-19.25413-8.48829-29.00989a45.86934,45.86934,0,0,0-30.10644,50.74739c9.85911-4.19626,22.27316-7.15,31.7068-9.00983A17.351,17.351,0,0,1,211.01092,167.2189Z" fill="#fbef57"/>
    <path d="M239.56439,168.41011c.4635.80606,1.5146,2.433,1.88861,6.92114,9.43372,1.86626,21.953,4.865,31.80814,9.04344a46.03455,46.03455,0,0,0-30.09362-50.826c-1.70547,9.77265-5.36313,20.8722-8.50808,29.1221C238.31521,165.7407,238.62574,166.77773,239.56439,168.41011Z" fill="#fbef57"/>
    <path d="M231.31082,191.18543a15.32736,15.32736,0,0,1-6.31631,1.27413,14.11807,14.11807,0,0,1-5.98351-1.09943c-5.88867,7.94828-15.59954,19.45209-23.96207,26.0944a48.91349,48.91349,0,0,0,59.7768.02152C246.46383,210.82826,237.165,199.10907,231.31082,191.18543Z" fill="#fbef57"/>
  </g>
  <g>
    <path d="M235.624,188.62208c8.18652,11.07422,19.59251,24.53146,31.17064,31.216,20.79687,12.00683,38.6748,13.30176,42.3291,6.97851,3.65136-6.32373-6.41016-21.16113-27.208-33.16894-11.44141-6.60547-27.9732-10.83618-40.96539-13.41039A16.45158,16.45158,0,0,1,235.624,188.62208Z" fill="#fbef57"/>
    <path d="M226.51753,164.60284a11.50241,11.50241,0,1,0,9.90509,9.906A11.51482,11.51482,0,0,0,226.51753,164.60284Z" fill="#fbef57"/>
    <path d="M225.205,159.50889a16.22729,16.22729,0,0,1,5.06928.85558c4.75-12.48,9.86509-28.791,9.86509-41.834,0-24.01513-7.81933-40.14746-15.12158-40.14746s-15.12061,16.13233-15.12061,40.14746c0,13.05567,5.11291,29.35765,9.86242,41.82982A18.67692,18.67692,0,0,1,225.205,159.50889Z" fill="#fbef57"/>
    <path d="M209.009,180.10757c-12.99219,2.57422-29.378,6.77556-40.81944,13.381-20.79785,12.00781-30.85937,26.84521-27.208,33.16894,3.6543,6.32325,21.53223,5.02832,42.32911-6.97851,11.57812-6.68457,22.87071-19.98953,31.05723-31.06375A16.36473,16.36473,0,0,1,209.009,180.10757Z" fill="#fbef57"/>
  </g>
</svg>
