<svg id="Layer_1" data-name="Layer 1" xmlns="http://www.w3.org/2000/svg" viewBox="0 0 303.24829 296.49492">
  <g>
    <path d="M92.89893,337.50977l-1.90479,1.96875a6.84464,6.84464,0,0,0-4.64648-2.30664,3.51286,3.51286,0,0,0-2.47266.95214,2.94119,2.94119,0,0,0-1.02881,2.22266,3.29125,3.29125,0,0,0,.84815,2.13672,11.92608,11.92608,0,0,0,3.563,2.43457,13.29251,13.29251,0,0,1,4.49659,3.30176,6.01565,6.01565,0,0,1,1.1665,3.61914,6.49488,6.49488,0,0,1-1.99268,4.80371,6.80149,6.80149,0,0,1-4.98095,1.96875,8.6948,8.6948,0,0,1-3.80518-.86817,8.25019,8.25019,0,0,1-2.99951-2.3916l1.86279-2.11621a6.47685,6.47685,0,0,0,4.81543,2.56055,4.338,4.338,0,0,0,3.03321-1.14258,3.52929,3.52929,0,0,0,1.25195-2.6875,3.44493,3.44493,0,0,0-.82715-2.26465,13.28824,13.28824,0,0,0-3.73291-2.45508,11.96468,11.96468,0,0,1-4.24219-3.1748,5.982,5.982,0,0,1-1.124-3.57715,5.817,5.817,0,0,1,1.7915-4.35937,6.23939,6.23939,0,0,1,4.52637-1.73536Q89.67652,334.39941,92.89893,337.50977Z" transform="translate(-73.11626 -78.38303)" fill="#fbef57" stroke="#fbef57" stroke-miterlimit="10"/>
    <path d="M122.47607,350.37793l2.49707,1.3125a13.61471,13.61471,0,0,1-2.83837,3.89453,11.2774,11.2774,0,0,1-3.62256,2.25391,12.645,12.645,0,0,1-4.55469.77246,11.007,11.007,0,0,1-8.8125-3.69336,12.45983,12.45983,0,0,1-3.17725-8.34961,12.31089,12.31089,0,0,1,2.68994-7.80957,10.99884,10.99884,0,0,1,9.13038-4.35938,11.3606,11.3606,0,0,1,9.40527,4.46485,12.47341,12.47341,0,0,1,2.542,7.874H105.01514a9.37387,9.37387,0,0,0,2.564,6.57715,8.17936,8.17936,0,0,0,6.124,2.56543,9.85671,9.85671,0,0,0,3.42236-.61133,9.0154,9.0154,0,0,0,2.82861-1.623A13.83661,13.83661,0,0,0,122.47607,350.37793Zm0-6.20117a9.81937,9.81937,0,0,0-1.72753-3.78809,8.18182,8.18182,0,0,0-2.99805-2.28613,9.19153,9.19153,0,0,0-3.92041-.86719,8.44184,8.44184,0,0,0-5.82715,2.17969,9.8469,9.8469,0,0,0-2.69141,4.76172Z" transform="translate(-73.11626 -78.38303)" fill="#fbef57" stroke="#fbef57" stroke-miterlimit="10"/>
    <path d="M159.14307,334.99121v23.02734h-2.9209v-3.958a12.70916,12.70916,0,0,1-4.18018,3.4082,11.67749,11.67749,0,0,1-13.418-2.40234,11.8859,11.8859,0,0,1-3.46045-8.625,11.66909,11.66909,0,0,1,3.49219-8.50782,11.386,11.386,0,0,1,8.40235-3.53418,10.86066,10.86066,0,0,1,5.13232,1.20606,11.67817,11.67817,0,0,1,4.03174,3.61914v-4.2334Zm-11.8418,2.26465a8.93566,8.93566,0,0,0-7.896,4.63086,9.32917,9.32917,0,0,0,.01075,9.30078,9.07968,9.07968,0,0,0,3.35058,3.457,8.757,8.757,0,0,0,4.51367,1.23633,9.24231,9.24231,0,0,0,4.6084-1.22656,8.57038,8.57038,0,0,0,3.35059-3.31836,9.47427,9.47427,0,0,0,1.17334-4.71485,9.16417,9.16417,0,0,0-2.63184-6.67968A8.71837,8.71837,0,0,0,147.30127,337.25586Z" transform="translate(-73.11626 -78.38303)" fill="#fbef57" stroke="#fbef57" stroke-miterlimit="10"/>
    <path d="M170.79248,334.99121h2.96338v4.2334a11.8817,11.8817,0,0,1,4.03857-3.61914,10.72942,10.72942,0,0,1,5.09522-1.20606,11.36814,11.36814,0,0,1,8.39355,3.53418,11.67552,11.67552,0,0,1,3.48877,8.50782,11.89272,11.89272,0,0,1-3.457,8.625,11.64078,11.64078,0,0,1-13.394,2.40234,12.73538,12.73538,0,0,1-4.165-3.4082V374.378h-2.96338Zm11.85254,2.26465a8.70219,8.70219,0,0,0-6.47217,2.68555,9.16768,9.16768,0,0,0-2.6289,6.67968,9.47872,9.47872,0,0,0,1.17236,4.71485,8.54212,8.54212,0,0,0,3.35693,3.31836,9.2807,9.2807,0,0,0,4.61377,1.22656,8.70066,8.70066,0,0,0,4.48682-1.23633,9.07835,9.07835,0,0,0,3.34717-3.457,9.33713,9.33713,0,0,0,.01025-9.30078,8.92192,8.92192,0,0,0-7.88623-4.63086Z" transform="translate(-73.11626 -78.38303)" fill="#fbef57" stroke="#fbef57" stroke-miterlimit="10"/>
    <path d="M204.81445,319.10236h2.96289v38.91619h-2.96289Z" transform="translate(-73.11626 -78.38303)" fill="#fbef57" stroke="#fbef57" stroke-miterlimit="10"/>
    <path d="M241.82031,334.99121v23.02734h-2.92187v-3.958a12.7175,12.7175,0,0,1-4.17969,3.4082,11.6775,11.6775,0,0,1-13.418-2.40234,11.8859,11.8859,0,0,1-3.46045-8.625,11.66905,11.66905,0,0,1,3.49219-8.50782,11.3841,11.3841,0,0,1,8.40186-3.53418,10.86264,10.86264,0,0,1,5.13281,1.20606,11.66382,11.66382,0,0,1,4.03125,3.61914v-4.2334Zm-11.84179,2.26465a8.93567,8.93567,0,0,0-7.89649,4.63086,9.32914,9.32914,0,0,0,.01074,9.30078,9.07978,9.07978,0,0,0,3.35059,3.457,8.757,8.757,0,0,0,4.51367,1.23633,9.24858,9.24858,0,0,0,4.60938-1.22656,8.57751,8.57751,0,0,0,3.34961-3.31836,9.48477,9.48477,0,0,0,1.17382-4.71485,9.15911,9.15911,0,0,0-2.63281-6.67968A8.71544,8.71544,0,0,0,229.97852,337.25586Z" transform="translate(-73.11626 -78.38303)" fill="#fbef57" stroke="#fbef57" stroke-miterlimit="10"/>
    <path d="M253.42773,334.99121h2.9629v4.12695a12.40084,12.40084,0,0,1,3.93652-3.54492,9.673,9.673,0,0,1,4.69824-1.17383,8.16768,8.16768,0,0,1,4.582,1.31153,7.81122,7.81122,0,0,1,2.95313,3.53515,18.69148,18.69148,0,0,1,.95215,6.91993v11.85253h-2.9629V347.03418a27.06317,27.06317,0,0,0-.33007-5.3125,5.83555,5.83555,0,0,0-1.97559-3.43945,5.96721,5.96721,0,0,0-3.80957-1.15332,7.30863,7.30863,0,0,0-4.81641,1.77832,8.33047,8.33047,0,0,0-2.80468,4.40234,30.61706,30.61706,0,0,0-.42285,6.26465v8.44433h-2.9629Z" transform="translate(-73.11626 -78.38303)" fill="#fbef57" stroke="#fbef57" stroke-miterlimit="10"/>
    <path d="M304.19043,350.37793l2.49707,1.3125a13.60666,13.60666,0,0,1-2.83887,3.89453,11.26987,11.26987,0,0,1-3.62207,2.25391,12.6449,12.6449,0,0,1-4.55468.77246,11.00632,11.00632,0,0,1-8.8125-3.69336,12.46029,12.46029,0,0,1-3.17774-8.34961,12.30852,12.30852,0,0,1,2.69043-7.80957,10.99917,10.99917,0,0,1,9.12988-4.35938,11.3587,11.3587,0,0,1,9.40528,4.46485,12.46766,12.46766,0,0,1,2.542,7.874H286.72949a9.37424,9.37424,0,0,0,2.56446,6.57715,8.17707,8.17707,0,0,0,6.124,2.56543,9.856,9.856,0,0,0,3.42187-.61133,9.002,9.002,0,0,0,2.82813-1.623A13.824,13.824,0,0,0,304.19043,350.37793Zm0-6.20117a9.82656,9.82656,0,0,0-1.72754-3.78809,8.17767,8.17767,0,0,0-2.99805-2.28613,9.18776,9.18776,0,0,0-3.91992-.86719,8.44512,8.44512,0,0,0-5.82812,2.17969,9.8459,9.8459,0,0,0-2.69043,4.76172Z" transform="translate(-73.11626 -78.38303)" fill="#fbef57" stroke="#fbef57" stroke-miterlimit="10"/>
    <path d="M321.17383,353.3623a2.60084,2.60084,0,0,1,2.60351,2.624,2.54472,2.54472,0,0,1-.76171,1.85254,2.58079,2.58079,0,0,1-3.68262,0,2.64548,2.64548,0,0,1,0-3.71485A2.509,2.509,0,0,1,321.17383,353.3623Z" transform="translate(-73.11626 -78.38303)" fill="#fbef57" stroke="#fbef57" stroke-miterlimit="10"/>
    <path d="M335.88281,325.50977a2.44434,2.44434,0,0,1,0,4.88867,2.44929,2.44929,0,0,1-2.42285-2.4336,2.37027,2.37027,0,0,1,.71582-1.73535A2.327,2.327,0,0,1,335.88281,325.50977Zm-1.4707,9.48144H337.375v23.02734h-2.96289Z" transform="translate(-73.11626 -78.38303)" fill="#fbef57" stroke="#fbef57" stroke-miterlimit="10"/>
    <path d="M359.375,334.39941a11.40337,11.40337,0,0,1,8.82031,3.85157,12.36485,12.36485,0,0,1-.18066,16.75195,12.17295,12.17295,0,0,1-17.30078,0,12.33607,12.33607,0,0,1-.17969-16.73047A11.39945,11.39945,0,0,1,359.375,334.39941Zm-.01074,2.89942a8.553,8.553,0,0,0-6.35059,2.72949,9.12746,9.12746,0,0,0-2.65429,6.60352,9.36937,9.36937,0,0,0,1.21,4.65625,8.57921,8.57921,0,0,0,3.27148,3.334,9.30449,9.30449,0,0,0,9.04785,0,8.57686,8.57686,0,0,0,3.27051-3.334,9.36,9.36,0,0,0,1.21094-4.65625,9.10645,9.10645,0,0,0-2.666-6.60352A8.56067,8.56067,0,0,0,359.36426,337.29883Z" transform="translate(-73.11626 -78.38303)" fill="#fbef57" stroke="#fbef57" stroke-miterlimit="10"/>
  </g>
  <g id="pontoons">
    <path d="M184.80405,242.50443c11.197,8.36736-12.91391,35.25508-24.18512,46.11C152.43091,296.5,138.5634,301.7249,124.87353,301c-9.44262-.5-17.53955-24.52782,3.31635-38.84334C136.43091,256.5,175.43091,235.5,184.80405,242.50443Z" transform="translate(-73.11626 -78.38303)" fill="#fbef57"/>
    <path d="M265.196,242.50443c-11.197,8.36736,12.91391,35.25508,24.18512,46.11C297.56909,296.5,311.4366,301.7249,325.12647,301c9.44262-.5,17.53955-24.52782-3.31635-38.84334C313.56909,256.5,274.56909,235.5,265.196,242.50443Z" transform="translate(-73.11626 -78.38303)" fill="#fbef57"/>
  </g>
  <g id="wings">
    <path d="M171.559,181.19622a52.88886,52.88886,0,0,1,4.44824-24.0268H88.46927l.56.002c-6.94536.004-12.68874.004-15.913,6.21685,2.85746,7.51293,10.03929,17.72664,22.06787,17.79005l74.81007.0179Z" transform="translate(-73.11626 -78.38303)" fill="#fbef57"/>
    <path d="M278.44061,181.19622c.457-7.25134-1.30153-18.35137-4.42765-24.0268h86.99858l-.56.002c6.94536.004,12.68874.004,15.913,6.21685-2.85746,7.51293-10.03929,17.72664-22.06787,17.79005l-75.30455.0179Z" transform="translate(-73.11626 -78.38303)" fill="#fbef57"/>
  </g>
  <g>
    <path d="M211.01092,167.2189a18.79813,18.79813,0,0,1,4.33-4.61532c-3.13977-8.23074-6.79188-19.25413-8.48829-29.00989a45.86934,45.86934,0,0,0-30.10644,50.74739c9.85911-4.19626,22.27316-7.15,31.7068-9.00983A17.351,17.351,0,0,1,211.01092,167.2189Z" transform="translate(-73.11626 -78.38303)" fill="#fbef57"/>
    <path d="M239.56439,168.41011c.4635.80606,1.5146,2.433,1.88861,6.92114,9.43372,1.86626,21.953,4.865,31.80814,9.04344a46.03455,46.03455,0,0,0-30.09362-50.826c-1.70547,9.77265-5.36313,20.8722-8.50808,29.1221C238.31521,165.7407,238.62574,166.77773,239.56439,168.41011Z" transform="translate(-73.11626 -78.38303)" fill="#fbef57"/>
    <path d="M231.31082,191.18543a15.32736,15.32736,0,0,1-6.31631,1.27413,14.11807,14.11807,0,0,1-5.98351-1.09943c-5.88867,7.94828-15.59954,19.45209-23.96207,26.0944a48.91349,48.91349,0,0,0,59.7768.02152C246.46383,210.82826,237.165,199.10907,231.31082,191.18543Z" transform="translate(-73.11626 -78.38303)" fill="#fbef57"/>
  </g>
  <g>
    <path d="M235.624,188.62208c8.18652,11.07422,19.59251,24.53146,31.17064,31.216,20.79687,12.00683,38.6748,13.30176,42.3291,6.97851,3.65136-6.32373-6.41016-21.16113-27.208-33.16894-11.44141-6.60547-27.9732-10.83618-40.96539-13.41039A16.45158,16.45158,0,0,1,235.624,188.62208Z" transform="translate(-73.11626 -78.38303)" fill="#fbef57"/>
    <path d="M226.51753,164.60284a11.50241,11.50241,0,1,0,9.90509,9.906A11.51482,11.51482,0,0,0,226.51753,164.60284Z" transform="translate(-73.11626 -78.38303)" fill="#fbef57"/>
    <path d="M225.205,159.50889a16.22729,16.22729,0,0,1,5.06928.85558c4.75-12.48,9.86509-28.791,9.86509-41.834,0-24.01513-7.81933-40.14746-15.12158-40.14746s-15.12061,16.13233-15.12061,40.14746c0,13.05567,5.11291,29.35765,9.86242,41.82982A18.67692,18.67692,0,0,1,225.205,159.50889Z" transform="translate(-73.11626 -78.38303)" fill="#fbef57"/>
    <path d="M209.009,180.10757c-12.99219,2.57422-29.378,6.77556-40.81944,13.381-20.79785,12.00781-30.85937,26.84521-27.208,33.16894,3.6543,6.32325,21.53223,5.02832,42.32911-6.97851,11.57812-6.68457,22.87071-19.98953,31.05723-31.06375A16.36473,16.36473,0,0,1,209.009,180.10757Z" transform="translate(-73.11626 -78.38303)" fill="#fbef57"/>
  </g>
</svg>
